<?xml version="1.0" standalone="no"?>
<!DOCTYPE svg PUBLIC "-//W3C//DTD SVG 20010904//EN"
 "http://www.w3.org/TR/2001/REC-SVG-20010904/DTD/svg10.dtd">
<svg version="1.0" xmlns="http://www.w3.org/2000/svg"
 width="1068.000000pt" height="1054.000000pt" viewBox="0 0 1068.000000 1054.000000"
 preserveAspectRatio="xMidYMid meet">

<g transform="translate(0.000000,1054.000000) scale(0.100000,-0.100000)"
fill="#000000" stroke="none">
<path d="M5205 8869 c-1173 -49 -2271 -673 -2921 -1659 -213 -323 -352 -620
-463 -991 -344 -1139 -108 -2397 627 -3338 674 -863 1687 -1388 2759 -1429
483 -19 906 39 1338 183 877 292 1597 881 2060 1685 502 871 625 1936 334
2900 -212 703 -609 1307 -1174 1786 -256 217 -590 422 -935 574 -354 156 -864
273 -1245 286 -82 3 -163 6 -180 7 -16 2 -106 0 -200 -4z m615 -229 c677 -87
1276 -349 1817 -797 128 -106 373 -357 486 -498 334 -416 572 -922 691 -1465
218 -1001 -42 -2096 -691 -2905 -113 -141 -358 -392 -486 -498 -540 -447
-1142 -711 -1812 -796 -516 -65 -1035 -18 -1521 140 -573 185 -1102 524 -1499
959 -512 562 -809 1202 -911 1965 -25 183 -25 647 0 830 142 1059 691 1941
1573 2525 149 99 452 256 623 323 331 130 676 209 1031 237 175 13 509 4 699
-20z"/>
<path d="M5396 8234 c-9 -8 -16 -24 -16 -34 0 -34 39 -50 117 -50 61 0 74 3
83 19 14 28 13 38 -10 61 -26 26 -149 29 -174 4z"/>
<path d="M5012 8233 c-12 -2 -30 -15 -38 -29 -15 -22 -15 -26 1 -50 17 -26 19
-26 88 -19 39 3 79 11 89 16 21 11 24 59 6 77 -11 11 -97 14 -146 5z"/>
<path d="M5823 8210 c-24 -10 -37 -39 -27 -64 9 -22 38 -33 111 -41 48 -6 63
-4 76 10 39 39 11 80 -61 90 -26 4 -54 8 -62 10 -8 2 -25 0 -37 -5z"/>
<path d="M4636 8162 c-32 -9 -63 -24 -69 -33 -14 -22 -1 -66 22 -74 22 -7 139
21 159 37 29 24 2 89 -36 87 -9 0 -44 -8 -76 -17z"/>
<path d="M6222 8114 c-24 -17 -29 -56 -9 -72 22 -19 133 -51 155 -45 26 6 40
48 25 72 -9 14 -111 59 -138 60 -6 1 -21 -6 -33 -15z"/>
<path d="M4242 8038 c-63 -25 -89 -56 -73 -87 6 -11 20 -23 31 -26 20 -6 123
26 147 47 20 16 16 66 -6 78 -26 14 -37 12 -99 -12z"/>
<path d="M6606 7967 c-12 -9 -17 -23 -14 -42 3 -26 12 -35 71 -63 74 -37 101
-36 119 4 15 32 -9 59 -80 90 -61 28 -72 29 -96 11z"/>
<path d="M3858 7854 c-31 -19 -60 -44 -63 -54 -8 -25 9 -56 34 -63 35 -9 161
70 161 102 0 17 -38 51 -57 51 -10 0 -44 -16 -75 -36z"/>
<path d="M6966 7761 c-27 -29 -12 -58 50 -97 58 -37 99 -42 117 -13 19 30 0
63 -56 97 -61 37 -87 40 -111 13z"/>
<path d="M3570 7662 c-8 -3 -39 -23 -67 -45 -42 -31 -53 -45 -53 -68 0 -28 22
-49 53 -49 17 0 118 75 130 96 20 35 -24 79 -63 66z"/>
<path d="M7306 7524 c-30 -29 -19 -60 36 -108 54 -47 92 -58 116 -34 24 24 12
55 -42 107 -57 53 -84 62 -110 35z"/>
<path d="M3193 7347 c-58 -59 -66 -88 -29 -112 31 -21 51 -12 108 49 53 57 59
77 26 100 -35 25 -47 20 -105 -37z"/>
<path d="M7608 7239 c-32 -18 -22 -60 28 -117 48 -55 79 -66 108 -36 27 26 18
53 -35 110 -52 54 -69 62 -101 43z"/>
<path d="M2923 7038 c-54 -72 -55 -75 -48 -98 8 -26 39 -42 64 -32 25 9 101
109 101 133 0 25 -27 49 -55 49 -16 0 -34 -16 -62 -52z"/>
<path d="M7856 6899 c-17 -24 -14 -35 27 -102 37 -61 60 -74 93 -52 33 21 30
50 -12 118 -30 48 -40 57 -64 57 -18 0 -34 -8 -44 -21z"/>
<path d="M5425 6800 c-32 -13 -63 -52 -230 -290 -87 -124 -180 -252 -206 -286
-74 -94 -84 -135 -50 -202 30 -58 96 -82 149 -53 11 6 61 78 112 161 50 82 96
152 101 155 5 4 9 -524 9 -1345 0 -1506 -6 -1383 71 -1414 72 -29 140 -18 192
32 l27 26 0 1576 c0 1440 -1 1578 -16 1599 -30 42 -109 62 -159 41z"/>
<path d="M2733 6743 c-18 -7 -83 -117 -83 -140 0 -27 19 -43 52 -43 24 0 35
10 68 63 46 71 47 80 20 107 -20 20 -34 23 -57 13z"/>
<path d="M8059 6536 c-9 -20 -6 -35 22 -92 31 -62 37 -69 66 -72 48 -5 62 29
38 93 -26 67 -51 95 -86 95 -21 0 -32 -7 -40 -24z"/>
<path d="M2548 6373 c-10 -2 -28 -33 -44 -74 -23 -57 -25 -73 -16 -94 9 -18
19 -25 41 -25 16 0 33 6 39 13 14 17 52 118 52 139 0 15 -37 50 -50 47 -3 -1
-13 -3 -22 -6z"/>
<path d="M8225 6160 c-17 -19 -17 -22 5 -91 27 -83 52 -103 95 -75 14 9 25 22
25 30 0 20 -38 127 -51 142 -17 20 -53 17 -74 -6z"/>
<path d="M2402 5968 c-16 -20 -44 -137 -37 -159 8 -23 52 -36 74 -22 15 9 48
106 50 145 2 38 -63 65 -87 36z"/>
<path d="M8335 5763 c-14 -14 -16 -28 -10 -82 10 -94 20 -108 75 -101 23 2 41
32 36 60 -3 14 -8 44 -11 68 -11 67 -53 93 -90 55z"/>
<path d="M2320 5555 c-18 -22 -26 -151 -10 -170 16 -19 54 -19 73 -1 20 20 32
153 16 172 -15 19 -63 18 -79 -1z"/>
<path d="M8385 5357 c-15 -12 -18 -26 -16 -88 2 -80 17 -109 56 -109 36 0 45
20 45 97 0 60 -4 77 -20 93 -23 23 -39 25 -65 7z"/>
<path d="M2308 5149 c-28 -16 -26 -151 3 -180 14 -14 27 -18 42 -13 36 11 40
20 38 96 -2 96 -30 128 -83 97z"/>
<path d="M8377 4936 c-8 -8 -17 -46 -21 -88 -7 -67 -6 -74 14 -90 28 -22 32
-22 60 0 18 15 23 31 28 90 5 79 -4 102 -44 102 -12 0 -29 -6 -37 -14z"/>
<path d="M2354 4739 c-30 -11 -34 -30 -23 -101 15 -90 53 -123 94 -81 14 14
16 28 10 82 -4 36 -11 73 -16 82 -11 21 -38 28 -65 18z"/>
<path d="M8312 4528 c-16 -20 -44 -137 -37 -159 8 -23 52 -36 74 -22 15 9 48
106 50 145 2 38 -63 65 -87 36z"/>
<path d="M2424 4319 c-18 -20 -18 -22 6 -91 27 -78 43 -94 83 -84 37 9 41 35
17 108 -29 88 -66 111 -106 67z"/>
<path d="M8192 4127 c-21 -24 -53 -127 -47 -147 3 -11 15 -25 26 -31 32 -17
63 11 89 81 18 49 21 66 12 85 -13 28 -61 35 -80 12z"/>
<path d="M2572 3938 c-19 -19 -15 -45 18 -113 31 -64 49 -78 87 -64 37 13 37
43 1 116 -29 59 -37 68 -63 71 -17 2 -36 -3 -43 -10z"/>
<path d="M7990 3698 c-44 -69 -46 -77 -27 -100 12 -17 27 -21 59 -19 19 1 88
109 88 138 0 27 -19 43 -52 43 -24 0 -35 -10 -68 -62z"/>
<path d="M2782 3574 c-12 -8 -22 -25 -22 -38 0 -29 63 -128 86 -137 29 -10 55
2 65 28 8 21 3 35 -27 84 -29 49 -58 79 -76 79 -2 0 -14 -7 -26 -16z"/>
<path d="M7818 3411 c-23 -8 -98 -110 -98 -132 0 -25 27 -49 55 -49 17 0 36
17 69 62 50 66 53 76 34 100 -17 20 -39 27 -60 19z"/>
<path d="M3016 3234 c-27 -27 -18 -54 38 -112 51 -53 56 -56 83 -47 47 17 43
59 -12 123 -49 55 -80 66 -109 36z"/>
<path d="M7551 3093 c-21 -9 -111 -106 -111 -120 0 -19 37 -53 57 -53 24 0
123 103 123 128 0 11 -10 28 -22 36 -24 17 -26 17 -47 9z"/>
<path d="M3300 2931 c-17 -34 -12 -47 44 -100 56 -52 73 -59 107 -41 37 20 24
64 -33 114 -58 51 -100 60 -118 27z"/>
<path d="M7190 2780 c-78 -58 -85 -75 -49 -111 25 -25 46 -19 116 34 56 42 67
71 37 101 -24 25 -46 19 -104 -24z"/>
<path d="M3634 2675 c-33 -33 -18 -62 50 -103 58 -36 87 -40 111 -16 27 28 14
56 -45 96 -73 49 -87 52 -116 23z"/>
<path d="M6869 2566 c-61 -31 -101 -70 -92 -93 19 -54 45 -56 124 -8 61 38 77
62 60 93 -16 29 -45 32 -92 8z"/>
<path d="M3998 2478 c-47 -37 -23 -80 67 -118 58 -25 92 -20 101 15 10 40 -2
54 -71 86 -74 33 -76 33 -97 17z"/>
<path d="M6475 2378 c-65 -25 -75 -35 -75 -69 0 -48 35 -57 110 -29 92 34 110
60 70 100 -24 24 -40 24 -105 -2z"/>
<path d="M4382 2314 c-29 -20 -29 -59 1 -78 12 -7 46 -21 75 -31 49 -16 55
-16 77 -1 27 18 33 57 13 74 -10 8 -128 52 -140 52 -2 0 -14 -7 -26 -16z"/>
<path d="M6076 2252 c-32 -9 -63 -24 -69 -33 -14 -22 -1 -66 22 -74 22 -7 139
21 159 37 29 24 2 89 -36 87 -9 0 -44 -8 -76 -17z"/>
<path d="M4776 2204 c-38 -38 -10 -79 62 -90 75 -11 104 -9 118 11 30 41 7 71
-65 85 -74 14 -97 13 -115 -6z"/>
<path d="M5655 2181 c-54 -9 -65 -17 -65 -50 0 -44 21 -54 100 -49 79 6 100
18 100 59 0 46 -36 56 -135 40z"/>
<path d="M5200 2168 c-11 -4 -22 -19 -26 -34 -11 -44 23 -64 110 -64 76 0 96
9 96 45 0 40 -16 50 -90 55 -39 3 -79 2 -90 -2z"/>
</g>
</svg>
