<?xml version="1.0" standalone="no"?>
<!DOCTYPE svg PUBLIC "-//W3C//DTD SVG 20010904//EN"
 "http://www.w3.org/TR/2001/REC-SVG-20010904/DTD/svg10.dtd">
<svg version="1.0" xmlns="http://www.w3.org/2000/svg"
 width="64.000000pt" height="64.000000pt" viewBox="0 0 64.000000 64.000000"
 preserveAspectRatio="xMidYMid meet">

<g transform="translate(0.000000,64.000000) scale(0.100000,-0.100000)"
fill="#000000" stroke="none">
<path d="M416 515 c-66 -50 -65 -50 -156 -30 -113 25 -160 17 -160 -26 0 -11
27 -32 75 -59 52 -29 73 -46 67 -53 -66 -87 -76 -96 -110 -99 -20 -2 -40 -11
-46 -20 -9 -15 0 -28 54 -83 35 -36 70 -65 77 -65 16 0 33 32 33 63 0 22 16
38 97 99 7 6 24 -15 53 -66 22 -42 45 -78 49 -80 4 -3 17 2 29 10 26 18 28 58
7 154 -20 91 -20 90 30 156 96 128 29 195 -99 99z"/>
</g>
</svg>
