<?xml version="1.0" standalone="no"?>
<!DOCTYPE svg PUBLIC "-//W3C//DTD SVG 20010904//EN"
 "http://www.w3.org/TR/2001/REC-SVG-20010904/DTD/svg10.dtd">
<svg version="1.0" xmlns="http://www.w3.org/2000/svg"
 width="1044.000000pt" height="1066.000000pt" viewBox="0 0 1044.000000 1066.000000"
 preserveAspectRatio="xMidYMid meet">

<g transform="translate(0.000000,1066.000000) scale(0.100000,-0.100000)"
fill="#000000" stroke="none">
<path d="M4980 10509 c-1345 -84 -2625 -765 -3473 -1846 -584 -746 -942 -1682
-1006 -2633 -13 -188 -13 -1152 0 -1340 136 -2025 1542 -3755 3503 -4311 310
-88 669 -148 1003 -168 1480 -91 2901 495 3890 1603 716 802 1140 1809 1212
2876 6 80 10 381 10 670 0 289 -4 590 -10 670 -94 1399 -794 2682 -1925 3531
-921 690 -2038 1020 -3204 948z m765 -873 c1036 -125 1946 -617 2604 -1409
494 -596 794 -1302 893 -2107 20 -165 17 -700 -5 -875 -76 -592 -275 -1153
-582 -1642 -414 -657 -1002 -1172 -1711 -1498 -855 -392 -1836 -463 -2749
-198 -818 237 -1553 751 -2070 1448 -414 557 -667 1204 -757 1935 -17 141 -17
689 0 830 99 804 399 1511 893 2107 700 842 1690 1347 2799 1427 118 8 561 -3
685 -18z m3489 -6753 c-189 -356 -452 -703 -778 -1028 -375 -374 -712 -617
-1171 -845 -239 -118 -366 -170 -605 -248 -497 -163 -1023 -234 -1565 -211
-645 26 -1230 178 -1810 469 -457 229 -787 470 -1165 849 -278 279 -493 553
-679 866 -49 83 -94 160 -100 173 -21 40 -4 23 30 -30 103 -160 508 -593 753
-805 706 -608 1562 -1001 2461 -1132 252 -36 376 -44 690 -45 314 0 416 6 690
45 992 141 1952 611 2664 1304 220 214 434 462 578 667 30 43 57 78 60 78 2 0
-21 -48 -53 -107z"/>
<path d="M5120 9309 c-1195 -58 -2291 -717 -2911 -1748 -216 -360 -365 -746
-448 -1166 -156 -783 -41 -1603 325 -2325 405 -800 1116 -1436 1956 -1749 685
-256 1430 -297 2140 -120 1034 259 1896 959 2368 1924 188 384 302 779 352
1220 18 165 15 580 -6 755 -51 435 -186 883 -374 1244 -388 748 -996 1323
-1754 1661 -386 171 -825 280 -1214 300 -223 11 -283 12 -434 4z m482 -1720
c146 -31 271 -140 339 -296 48 -111 48 -105 49 -1618 0 -1544 3 -1471 -55
-1585 -14 -27 -53 -79 -86 -115 -114 -122 -284 -181 -450 -156 -203 31 -376
191 -424 392 -12 54 -15 176 -15 774 l0 710 -72 -73 c-84 -85 -166 -135 -258
-156 -330 -78 -640 163 -640 497 0 79 21 170 55 236 24 49 54 86 200 246 51
55 160 179 245 275 329 377 625 682 748 773 69 50 150 85 227 97 73 11 79 11
137 -1z"/>
<path d="M5471 7235 c-65 -29 -412 -386 -761 -785 -80 -91 -193 -218 -252
-283 -114 -125 -136 -167 -124 -232 9 -44 44 -95 83 -118 37 -21 129 -25 165
-6 13 6 122 110 243 229 189 187 226 220 263 230 79 21 163 -16 198 -87 18
-36 19 -76 21 -963 2 -509 5 -935 8 -947 8 -32 60 -88 95 -103 43 -18 130 -8
168 18 16 12 40 42 51 66 l22 43 -3 1409 c-3 1554 2 1435 -64 1513 -29 35 -59
39 -113 16z"/>
</g>
</svg>
