<?xml version="1.0" standalone="no"?>
<!DOCTYPE svg PUBLIC "-//W3C//DTD SVG 20010904//EN"
 "http://www.w3.org/TR/2001/REC-SVG-20010904/DTD/svg10.dtd">
<svg version="1.0" xmlns="http://www.w3.org/2000/svg"
 width="1046.000000pt" height="1066.000000pt" viewBox="0 0 1046.000000 1066.000000"
 preserveAspectRatio="xMidYMid meet">

<g transform="translate(0.000000,1066.000000) scale(0.100000,-0.100000)"
fill="#000000" stroke="none">
<path d="M4900 10489 c-1564 -99 -2995 -976 -3815 -2339 -430 -715 -668 -1552
-678 -2380 -2 -237 -2 -623 0 -860 18 -1563 821 -3031 2145 -3921 1266 -852
2885 -1043 4333 -511 947 347 1793 1017 2350 1862 421 639 682 1353 770 2105
25 219 37 532 27 725 -5 98 -6 250 -1 345 20 410 -30 890 -137 1325 -350 1422
-1348 2621 -2689 3230 -721 327 -1504 470 -2305 419z m685 -350 c282 -21 611
-81 890 -162 402 -117 859 -329 1203 -559 678 -453 1203 -1050 1556 -1768 221
-448 370 -954 432 -1465 34 -285 29 -748 -12 -1070 -176 -1378 -1004 -2613
-2219 -3310 -959 -551 -2071 -722 -3165 -489 -452 97 -923 283 -1330 527
-1090 652 -1853 1727 -2105 2966 -105 518 -112 1150 -19 1661 89 485 281 1014
524 1435 368 641 889 1178 1537 1588 130 82 536 286 688 346 648 255 1316 354
2020 300z m-4225 -7330 c793 -1058 1961 -1738 3270 -1903 304 -39 735 -45
1040 -16 790 75 1554 346 2210 783 507 338 933 756 1313 1287 27 39 -36 -88
-99 -197 -184 -317 -452 -664 -723 -933 -349 -347 -705 -603 -1141 -824 -514
-260 -1010 -404 -1585 -461 -213 -22 -636 -22 -850 0 -792 78 -1519 350 -2163
807 -500 356 -936 828 -1254 1358 -73 121 -166 300 -131 250 10 -13 61 -81
113 -151z"/>
<path d="M4925 9629 c-1049 -85 -1989 -555 -2678 -1339 -887 -1008 -1202
-2406 -831 -3688 255 -880 771 -1608 1526 -2150 212 -152 496 -309 759 -421
313 -132 681 -228 1064 -277 176 -23 676 -26 860 -6 510 57 941 186 1400 421
230 117 349 191 546 337 196 147 317 253 488 429 552 570 911 1269 1055 2057
81 437 80 950 0 1386 -205 1116 -848 2060 -1819 2673 -142 90 -456 246 -638
318 -540 211 -1169 306 -1732 260z m560 -345 c350 -18 794 -125 1140 -274 456
-195 831 -453 1180 -811 566 -581 906 -1296 1007 -2119 20 -161 16 -682 -5
-840 -80 -573 -263 -1067 -572 -1540 -285 -436 -695 -832 -1145 -1106 -112
-68 -367 -197 -495 -250 -272 -112 -601 -201 -890 -239 -789 -103 -1566 46
-2258 434 -450 251 -869 629 -1170 1054 -114 161 -197 301 -292 492 -182 368
-291 726 -352 1156 -25 177 -25 710 0 889 135 963 597 1784 1337 2377 496 398
1120 666 1750 754 248 34 447 40 765 23z"/>
<path d="M3530 8244 c-159 -43 -302 -184 -352 -347 -17 -57 -20 -86 -16 -175
6 -117 25 -180 78 -257 17 -24 351 -371 743 -771 l712 -727 3 -144 3 -143
-215 0 c-245 0 -297 -10 -402 -78 -210 -136 -293 -391 -203 -625 31 -81 114
-184 190 -235 109 -73 161 -84 412 -90 l217 -4 0 -168 0 -168 -217 -4 c-187
-4 -227 -8 -283 -26 -263 -86 -415 -376 -333 -637 52 -165 181 -296 341 -345
55 -17 93 -20 277 -20 l213 0 4 -217 c4 -190 8 -226 26 -276 85 -233 262 -367
486 -367 103 1 153 12 243 57 83 40 177 132 217 211 51 101 58 144 63 375 l5
217 207 0 c279 0 355 21 477 133 246 225 217 626 -60 805 -116 75 -158 84
-408 90 l-218 4 0 168 0 168 218 4 c250 6 292 15 408 90 198 128 280 385 195
609 -58 151 -193 274 -346 314 -44 11 -113 15 -267 15 l-208 0 0 143 1 142
723 737 c763 778 762 777 800 907 20 69 21 199 1 276 -44 167 -193 316 -360
360 -164 42 -356 -1 -470 -106 -23 -21 -271 -300 -551 -619 -559 -638 -541
-621 -659 -624 -125 -2 -95 -30 -668 623 -285 324 -535 605 -557 625 -46 42
-114 78 -189 100 -68 20 -206 20 -281 0z m224 -346 c13 -7 259 -281 546 -608
564 -644 582 -661 724 -710 85 -30 239 -37 328 -16 76 17 184 69 239 113 20
15 266 291 548 613 282 322 520 591 529 598 9 7 34 17 55 23 144 39 270 -119
194 -242 -12 -20 -352 -374 -756 -785 -493 -503 -740 -762 -752 -789 -17 -36
-19 -69 -19 -328 0 -324 3 -337 77 -394 l36 -28 316 -5 c304 -5 317 -6 351
-27 100 -62 106 -209 12 -281 l-35 -27 -317 -5 -316 -5 -41 -27 c-24 -16 -49
-44 -62 -70 -20 -43 -21 -58 -21 -418 0 -360 1 -375 21 -418 13 -26 38 -54 62
-70 l41 -27 316 -5 317 -5 35 -27 c94 -72 88 -219 -12 -281 -34 -21 -47 -22
-351 -27 l-316 -5 -36 -28 c-75 -57 -77 -69 -77 -405 l0 -298 -26 -41 c-79
-121 -242 -105 -298 29 -13 31 -16 87 -16 320 0 320 -4 340 -76 394 l-37 29
-316 5 c-304 5 -317 6 -351 27 -83 51 -105 170 -46 247 15 20 37 41 49 48 16
9 110 14 338 18 l316 5 40 27 c24 16 49 44 62 70 20 43 21 58 21 418 0 360 -1
375 -21 418 -13 26 -38 54 -62 70 l-41 27 -315 5 c-228 4 -322 9 -338 18 -12
7 -34 28 -49 48 -59 77 -37 196 46 247 34 21 47 22 350 27 328 5 334 6 377 52
50 53 53 77 53 380 0 254 -2 287 -19 323 -12 27 -260 286 -752 788 -404 412
-744 765 -756 785 -52 85 -3 212 93 242 35 11 106 5 138 -12z"/>
</g>
</svg>
