<?xml version="1.0" standalone="no"?>
<!DOCTYPE svg PUBLIC "-//W3C//DTD SVG 20010904//EN"
 "http://www.w3.org/TR/2001/REC-SVG-20010904/DTD/svg10.dtd">
<svg version="1.0" xmlns="http://www.w3.org/2000/svg"
 width="1024.000000pt" height="1064.000000pt" viewBox="0 0 1024.000000 1064.000000"
 preserveAspectRatio="xMidYMid meet">

<g transform="translate(0.000000,1064.000000) scale(0.100000,-0.100000)"
fill="#000000" stroke="none">
<path d="M4740 10489 c-447 -28 -908 -127 -1345 -287 -947 -347 -1793 -1017
-2350 -1862 -416 -632 -669 -1315 -764 -2065 -29 -232 -43 -556 -33 -762 6
-99 6 -247 1 -350 -21 -416 34 -924 145 -1358 261 -1013 842 -1914 1652 -2561
792 -633 1716 -991 2719 -1054 784 -49 1563 95 2283 421 818 371 1535 983
2027 1729 416 632 669 1315 764 2065 29 233 43 556 33 762 -6 102 -6 244 0
345 21 411 -35 928 -146 1363 -261 1013 -842 1914 -1652 2561 -954 763 -2117
1130 -3334 1053z m760 -874 c358 -42 694 -125 1010 -250 132 -52 418 -191 536
-260 788 -462 1398 -1182 1712 -2021 260 -694 326 -1426 191 -2124 -198 -1027
-754 -1892 -1614 -2510 -204 -146 -496 -308 -756 -418 -311 -133 -678 -229
-1064 -278 -199 -26 -711 -26 -910 0 -386 49 -753 145 -1064 278 -140 59 -410
196 -533 271 -470 283 -926 720 -1235 1182 -600 900 -809 2003 -577 3045 208
930 728 1740 1480 2307 620 467 1292 722 2089 793 145 13 577 4 735 -15z
m3520 -6694 c-179 -356 -532 -828 -839 -1123 -513 -494 -1079 -837 -1739
-1054 -189 -62 -300 -91 -487 -128 -350 -68 -543 -87 -895 -87 -352 0 -545 19
-895 87 -522 102 -1063 323 -1525 622 -514 333 -944 757 -1299 1282 -54 80
-123 188 -154 242 -55 96 -99 180 -75 144 138 -202 220 -297 488 -566 302
-304 499 -466 830 -685 940 -622 2094 -888 3230 -745 659 84 1327 317 1900
664 256 155 544 371 775 582 199 182 477 499 640 728 38 53 70 96 72 96 2 0
-10 -27 -27 -59z"/>
<path d="M4870 9290 c-890 -44 -1741 -426 -2372 -1066 -297 -302 -496 -581
-678 -949 -176 -357 -291 -738 -347 -1148 -25 -186 -25 -705 0 -887 90 -644
330 -1234 702 -1725 277 -367 648 -702 1025 -927 839 -500 1829 -642 2775
-398 775 201 1476 672 1970 1325 372 491 611 1080 702 1725 25 179 25 711 0
890 -75 534 -256 1038 -524 1466 -512 813 -1329 1396 -2253 1608 -318 72 -662
102 -1000 86z m-1219 -1046 c75 -23 143 -58 190 -101 22 -20 273 -301 557
-625 573 -654 542 -624 669 -622 116 3 98 -14 660 627 281 320 529 599 551
619 114 103 305 145 467 103 167 -44 316 -193 360 -360 20 -77 19 -207 -1
-276 -39 -131 -37 -129 -800 -907 l-723 -737 -1 -142 0 -143 208 0 c291 0 363
-22 493 -150 105 -103 153 -220 152 -370 -1 -223 -146 -416 -364 -485 -42 -14
-103 -19 -271 -22 l-218 -5 0 -168 0 -168 218 -5 c168 -3 229 -8 271 -22 314
-100 454 -442 304 -740 -32 -62 -142 -172 -209 -207 -91 -49 -149 -58 -375
-58 l-207 0 -5 -217 c-5 -231 -12 -274 -63 -375 -40 -79 -134 -171 -217 -211
-94 -47 -160 -60 -271 -55 -164 9 -289 80 -382 219 -87 129 -96 168 -101 422
l-5 217 -207 0 c-290 0 -362 22 -492 150 -105 103 -153 220 -152 370 1 223
146 416 364 485 42 14 103 19 272 22 l217 5 0 168 0 168 -217 5 c-169 3 -230
8 -272 22 -314 100 -454 442 -304 740 32 62 142 172 209 207 92 49 149 58 376
58 l208 0 0 143 -1 142 -714 728 c-393 401 -728 748 -745 772 -53 77 -72 140
-78 257 -4 89 -1 118 16 175 50 163 193 304 352 347 75 20 213 20 281 0z"/>
<path d="M3456 7910 c-96 -30 -145 -157 -93 -242 12 -20 352 -373 756 -785
492 -502 740 -761 752 -788 17 -36 19 -69 19 -325 0 -322 -4 -342 -76 -396
l-37 -29 -316 -5 c-304 -5 -317 -6 -351 -27 -100 -62 -106 -209 -12 -281 l35
-27 317 -5 316 -5 41 -27 c24 -16 49 -44 62 -70 20 -43 21 -58 21 -418 0 -360
-1 -375 -21 -418 -13 -26 -38 -54 -62 -70 l-41 -27 -316 -5 -317 -5 -35 -27
c-94 -72 -88 -219 12 -281 34 -21 47 -22 351 -27 l316 -5 37 -29 c72 -54 76
-74 76 -394 0 -233 3 -289 16 -320 33 -79 100 -120 177 -108 55 9 90 32 121
79 l26 41 0 296 c0 333 4 351 76 406 l37 29 316 5 c304 5 317 6 351 27 100 62
106 209 12 281 l-35 27 -317 5 -316 5 -41 27 c-24 16 -49 44 -62 70 -20 43
-21 58 -21 418 0 360 1 375 21 418 13 26 38 54 62 70 l41 27 316 5 317 5 35
27 c94 72 88 219 -12 281 -34 21 -47 22 -351 27 l-316 5 -37 29 c-72 54 -76
74 -76 396 0 256 2 289 19 325 12 27 259 286 752 789 404 411 744 765 756 785
76 123 -50 281 -194 242 -21 -6 -46 -16 -55 -23 -8 -7 -246 -276 -528 -598
-282 -321 -529 -597 -549 -613 -55 -44 -163 -96 -239 -113 -89 -21 -243 -14
-328 16 -142 49 -160 67 -724 710 -287 327 -533 601 -546 608 -32 17 -103 23
-138 12z"/>
</g>
</svg>
