<?xml version="1.0" standalone="no"?>
<!DOCTYPE svg PUBLIC "-//W3C//DTD SVG 20010904//EN"
 "http://www.w3.org/TR/2001/REC-SVG-20010904/DTD/svg10.dtd">
<svg version="1.0" xmlns="http://www.w3.org/2000/svg"
 width="1008.000000pt" height="1052.000000pt" viewBox="0 0 1008.000000 1052.000000"
 preserveAspectRatio="xMidYMid meet">

<g transform="translate(0.000000,1052.000000) scale(0.100000,-0.100000)"
fill="#000000" stroke="none">
<path d="M4740 10449 c-1345 -84 -2625 -765 -3473 -1846 -584 -746 -942 -1682
-1006 -2633 -13 -188 -13 -1152 0 -1340 136 -2025 1542 -3755 3503 -4311 310
-88 669 -148 1003 -168 1480 -91 2901 495 3890 1603 716 802 1141 1810 1212
2876 13 188 13 1152 0 1340 -94 1399 -794 2682 -1925 3531 -921 690 -2038
1020 -3204 948z m600 -344 c340 -14 741 -90 1099 -206 787 -257 1482 -720
2018 -1345 595 -695 959 -1539 1059 -2464 21 -188 24 -624 6 -815 -58 -603
-190 -1077 -448 -1600 -395 -803 -1019 -1466 -1803 -1915 -499 -286 -1053
-474 -1626 -549 -866 -114 -1747 31 -2540 419 -882 431 -1620 1167 -2050 2045
-247 506 -386 993 -441 1555 -23 235 -24 648 0 860 104 958 496 1841 1126
2539 659 731 1510 1215 2470 1405 268 53 677 89 910 80 47 -2 146 -6 220 -9z
m-4194 -7255 c204 -289 533 -648 799 -871 1056 -888 2383 -1281 3742 -1109
1019 130 1996 603 2731 1324 219 214 446 478 573 665 70 102 77 108 39 31
-185 -370 -499 -791 -846 -1130 -355 -347 -699 -592 -1139 -810 -239 -118
-366 -170 -605 -248 -497 -163 -1023 -234 -1565 -211 -628 26 -1206 172 -1770
449 -478 234 -851 505 -1231 892 -256 260 -485 557 -667 865 -61 103 -147 265
-134 253 3 -3 36 -48 73 -100z"/>
<path d="M4820 9594 c-1109 -80 -2099 -585 -2799 -1427 -494 -596 -794 -1303
-893 -2107 -17 -141 -17 -689 0 -830 90 -731 343 -1378 757 -1935 405 -545
924 -966 1541 -1250 855 -392 1836 -463 2749 -198 916 266 1725 878 2240 1696
307 489 506 1050 582 1642 22 175 25 710 5 875 -99 805 -399 1511 -893 2107
-658 792 -1568 1284 -2604 1409 -124 15 -567 26 -685 18z m494 -349 c389 -20
828 -129 1214 -300 758 -338 1366 -913 1754 -1661 188 -361 323 -809 374
-1244 21 -175 24 -590 6 -755 -119 -1049 -643 -1955 -1485 -2568 -662 -483
-1500 -728 -2314 -678 -497 31 -925 141 -1361 351 -446 215 -821 500 -1149
873 -740 841 -1049 1982 -832 3072 66 331 183 672 327 949 438 845 1165 1475
2052 1777 324 111 641 172 980 188 151 8 211 7 434 -4z"/>
<path d="M5225 7530 c-78 -12 -159 -47 -227 -97 -123 -91 -419 -396 -748 -773
-85 -96 -194 -220 -245 -275 -190 -210 -210 -238 -239 -352 -84 -324 163 -643
499 -643 145 0 271 56 384 172 l71 73 0 -710 c0 -598 3 -720 15 -774 48 -201
221 -361 424 -392 257 -39 511 128 576 378 21 82 22 2855 1 2974 -49 271 -276
458 -511 419z m119 -371 c66 -78 61 41 64 -1513 l3 -1409 -22 -43 c-11 -24
-35 -54 -51 -66 -38 -26 -125 -36 -168 -18 -35 15 -87 71 -95 103 -3 12 -6
438 -8 947 -2 887 -3 927 -21 963 -35 71 -119 108 -198 87 -37 -10 -74 -43
-263 -230 -121 -119 -230 -223 -243 -229 -36 -19 -128 -15 -165 6 -39 23 -74
74 -83 120 -12 64 10 105 124 230 59 65 172 193 252 283 350 400 696 756 761
785 54 23 84 19 113 -16z"/>
</g>
</svg>
