<?xml version="1.0" encoding="utf-8"?>
<!-- Generator: Adobe Illustrator 25.0.0, SVG Export Plug-In . SVG Version: 6.00 Build 0)  -->
<svg version="1.1" id="图层_1" xmlns="http://www.w3.org/2000/svg" xmlns:xlink="http://www.w3.org/1999/xlink" x="0px" y="0px"
	 viewBox="0 0 206.3 122.91" style="enable-background:new 0 0 206.3 122.91;" xml:space="preserve">
<path d="M197.76,0H8.54C3.82,0,0,3.82,0,8.54v105.83c0,4.72,3.82,8.54,8.54,8.54h189.22c4.72,0,8.54-3.82,8.54-8.54V8.54
	C206.3,3.82,202.48,0,197.76,0z M69.31,18.07h67.68l-33.84,33.84L69.31,18.07z M103.15,71l33.84,33.84H69.31L103.15,71z
	 M144.67,18.07h28.8L139.35,34.8l11.02-11.02L144.67,18.07z M61.63,18.07l-5.71,5.71l14.8,14.8L28.9,18.07H61.63z M18.01,96.3V30.19
	l71.71,35.15L55.93,99.13l5.71,5.71H26.55C21.83,104.84,18.01,101.02,18.01,96.3z M188.28,96.3c0.01,4.72-3.82,8.54-8.53,8.54
	h-35.08l5.71-5.71l-35.12-35.12l73.02-35.8V96.3z"/>
</svg>
