<?xml version="1.0" encoding="utf-8"?>
<!-- Generator: Adobe Illustrator 25.0.0, SVG Export Plug-In . SVG Version: 6.00 Build 0)  -->
<svg version="1.1" id="图层_1" xmlns="http://www.w3.org/2000/svg" xmlns:xlink="http://www.w3.org/1999/xlink" x="0px" y="0px"
	 viewBox="0 0 206.3 122.91" style="enable-background:new 0 0 206.3 122.91;" xml:space="preserve">
<path d="M197.76,0H8.54C3.82,0,0,3.82,0,8.54v105.83c0,4.72,3.82,8.54,8.54,8.54h189.22c4.72,0,8.54-3.82,8.54-8.54V8.54
	C206.3,3.82,202.48,0,197.76,0z M101.19,53.51L28.9,18.07h144.57L101.19,53.51z M179.75,104.84H26.55c-4.72,0-8.54-3.82-8.54-8.54
	V30.19l81.66,40.03c1.05,0.52,2.25,0.41,3.18-0.16c0.09-0.04,0.19-0.06,0.28-0.1l85.15-41.75V96.3
	C188.29,101.02,184.46,104.84,179.75,104.84z"/>
</svg>
