<?xml version="1.0" encoding="utf-8"?>
<!-- Generator: Adobe Illustrator 25.0.0, SVG Export Plug-In . SVG Version: 6.00 Build 0)  -->
<svg version="1.1" id="图层_1" xmlns="http://www.w3.org/2000/svg" xmlns:xlink="http://www.w3.org/1999/xlink" x="0px" y="0px"
	 viewBox="0 0 38.4 88.3" style="enable-background:new 0 0 38.4 88.3;" xml:space="preserve">
<path d="M26.4,19.8h-5.1c4.5-1,7.9-5,7.9-9.8c0-5.5-4.5-10-10-10c-5.5,0-10,4.5-10,10c0,4.8,3.4,8.8,7.9,9.8H12c-7,0-12.5,6-12,13
	l1.3,15.9c0.2,1.7,1.7,3.1,3.4,3.1c1.8,0,3.3,1.4,3.4,3.2l2.1,30.4c0.1,1.6,1.5,2.9,3.1,2.9H25c1.6,0,3-1.3,3.1-2.9L30.2,55
	c0.1-1.8,1.6-3.2,3.4-3.2c1.8,0,3.3-1.4,3.4-3.2l1.3-15.9C38.9,25.8,33.4,19.8,26.4,19.8z"/>
</svg>
