<svg id="图层_1" data-name="图层 1" xmlns="http://www.w3.org/2000/svg" viewBox="0 0 219.87 404.38"><path d="M65.93,340.78h88l2.43,20.38H63.5Zm3.82-33H150l2,16.87H67.73ZM24.54,294.25,21,307.76H49.68l-2.93,16.87H16.66l-4.23,16.15H43.82l-3.54,20.38H7.16L2,380.94H36.84l-4.13,23.44H58.45l2.72-23.44h97.41l2.74,23.44h25.74l-4.13-23.44h34.83l-5-19.78H179.59l-3.54-20.38h31.39l-4.23-16.15H173.12l-2.93-16.87h28.67l-3.53-13.51Zm147.38-120a18.57,18.57,0,1,1-18.58,18.58A18.54,18.54,0,0,1,171.92,174.22Zm-124,0A18.57,18.57,0,1,1,29.37,192.8,18.54,18.54,0,0,1,48,174.22Zm75.8-104.28h60.57a7.43,7.43,0,0,1,7.38,7.38v60.56a7.41,7.41,0,0,1-7.38,7.35H123.75a7.37,7.37,0,0,1-7.35-7.35V77.32a7.4,7.4,0,0,1,2.16-5.21A7.32,7.32,0,0,1,123.75,69.94Zm-88.2,0H96.12a7.32,7.32,0,0,1,5.19,2.17,7.4,7.4,0,0,1,2.16,5.21v60.56a7.37,7.37,0,0,1-7.35,7.35H35.55a7.41,7.41,0,0,1-7.38-7.35V77.32a7.43,7.43,0,0,1,7.38-7.38ZM40,20.69A29.34,29.34,0,0,0,11.32,43.6C4.06,75.8,0,112.14,0,150.6s4.06,74.7,11.32,107A29.34,29.34,0,0,0,40,280.5H179.9a29.34,29.34,0,0,0,28.65-22.9c7.26-32.2,11.32-68.54,11.32-107s-4.06-74.7-11.32-107A29.34,29.34,0,0,0,179.9,20.69ZM76.81,0V13.82h66.25V0Z"/></svg>