<?xml version="1.0" encoding="utf-8"?>
<!-- Generator: Adobe Illustrator 25.0.0, SVG Export Plug-In . SVG Version: 6.00 Build 0)  -->
<svg version="1.1" id="图层_1" xmlns="http://www.w3.org/2000/svg" xmlns:xlink="http://www.w3.org/1999/xlink" x="0px" y="0px"
	 viewBox="0 0 204 224" style="enable-background:new 0 0 204 224;" xml:space="preserve">
<g transform="translate(0.000000,256.000000) scale(0.100000,-0.100000)">
	<path d="M885,2535c-16-15-25-36-25-55c0-33,38-80,65-80c13,0,15-19,15-124v-123l-51-7c-28-4-75-16-106-27c-30-12-56-19-57-17
		c-2,1-33,48-69,104c-35,56-72,104-82,107c-53,21-115-17-115-70c0-17,25-66,64-126l63-97l-75-76l-75-75l-101,59c-87,50-101,61-98,81
		c9,61-51,114-106,95C99,2093,0,1929,0,1887c0-33,40-77,70-77c23,0,61,17,71,33c5,7,219-107,219-116c0-1-9-25-19-53
		c-11-28-23-75-27-103l-7-51h-99c-92,0-101-2-123-25c-33-32-33-78,0-110c22-23,31-25,123-25h99l7-51c4-28,16-75,27-103
		c10-28,19-52,19-53c0-9-214-123-219-116c-10,16-48,33-71,33c-30,0-70-44-70-77c0-16,24-68,53-117c38-66,59-92,80-99
		c57-18,114,33,105,94c-3,20,11,31,98,81l101,59l75-75l75-76l-63-97c-39-60-64-109-64-126c0-53,62-91,115-70c10,3,47,51,82,107
		c36,56,67,103,69,104c1,2,27-5,57-17c31-11,78-23,106-27l51-7V604c0-105-2-124-15-124c-9,0-27-11-40-25c-33-32-33-78,0-110
		c23-24,31-25,135-25s112,1,135,25c33,32,33,78,0,110c-13,14-31,25-40,25c-13,0-15,19-15,124v123l51,7c28,4,75,16,106,27
		c30,12,56,19,57,17c2-1,33-48,69-104c35-56,72-104,82-107c53-21,115,17,115,70c0,17-25,65-64,125l-64,98l75,75l76,76l101-59
		c87-50,101-61,98-81c-9-61,51-114,106-95c33,11,132,175,132,217c0,33-40,77-70,77c-23,0-61-17-71-32c-5-7-219,106-219,116
		c0,0,9,24,19,52c11,28,23,75,27,103l7,51h99c92,0,101,2,123,25c33,32,33,78,0,110c-22,23-31,25-123,25h-99l-7,51
		c-4,28-16,75-27,103c-10,28-19,52-19,52c0,10,214,123,219,116c13-20,53-33,82-27c34,8,59,39,59,75c0,40-100,203-132,214
		c-55,19-115-34-106-95c3-20-11-31-98-81l-101-59l-76,76l-75,75l64,98c39,60,64,108,64,125c0,53-62,91-115,70c-10-3-47-51-82-107
		c-36-56-67-103-69-104c-1-2-27,5-57,17c-31,11-78,23-106,27l-51,7v123c0,105,2,124,15,124c27,0,65,47,65,80c0,19-9,40-25,55
		c-23,24-31,25-135,25S908,2559,885,2535z M1144,1881c26-27,31-39,31-81c0-43-5-54-33-82s-39-33-82-33s-54,5-82,33s-33,39-33,81
		c0,52,25,92,70,112C1052,1927,1111,1914,1144,1881z M763,1426c103-43,128-177,48-257c-65-65-157-65-222,0
		C465,1292,602,1494,763,1426z M1384,1241c26-27,31-39,31-81c0-43-5-54-33-82s-39-33-82-33s-54,5-82,33s-33,39-33,81
		c0,52,25,92,70,112C1292,1287,1351,1274,1384,1241z"/>
</g>
</svg>
